<?xml version="1.0" encoding="UTF-8"?>
<svg id="Layer_1" xmlns="http://www.w3.org/2000/svg" version="1.1" viewBox="0 0 512 512">
  <!-- Generator: Adobe Illustrator 29.8.1, SVG Export Plug-In . SVG Version: 2.1.1 Build 2)  -->
  <defs>
    <style>
      .st0 {
        fill: #e95420;
      }

      .st1 {
        fill: #fff;
      }

      .st2 {
        fill: none;
      }
    </style>
  </defs>
  <g>
    <rect class="st0" width="512" height="512"/>
    <g>
      <circle class="st1" cx="116.5" cy="245.8" r="52.7"/>
      <circle class="st1" cx="336.1" cy="130.2" r="52.7"/>
      <path class="st1" d="M235.4,381.5c-38-8.1-69.7-32.4-87.6-66.8-14.1,6.4-29.9,8.3-45.1,5.5,21.6,53,67.4,91.5,123.6,103.6,12.3,2.6,24.9,3.9,37.4,3.9-9.7-12.7-15.1-28.1-15.4-44.1-4.3-.5-8.7-1.2-12.9-2.1,0,0,0,0,0,0Z"/>
      <circle class="st1" cx="324.2" cy="381.8" r="52.7"/>
      <path class="st1" d="M397.6,362.4c16.4-20.7,27.9-45.1,33.5-71.1,9.7-45.3.6-92.8-24.9-131.3-6.1,14.3-16.4,26.4-29.7,34.7,14.2,26.8,18.6,57.8,12.2,87.5-3.1,14.6-8.6,28.3-16.4,40.9,12.4,10.2,21.2,23.9,25.2,39.3h0Z"/>
      <path class="st1" d="M112.4,170.2c1.3,0,2.7-.1,4-.1,5.3,0,10.6.6,15.9,1.7,8.6,1.8,16.7,5.1,24.1,9.7,23.7-34.1,62-54.6,103.6-55.4.2-4,.8-8,1.6-11.9,2.4-11.3,7.4-21.9,14.4-30.9-66.3-5.3-130.7,29-163.6,86.9h0Z"/>
    </g>
  </g>
  <rect class="st2" x="29.4" y="22.3" width="188" height="188"/>
</svg>