<?xml version="1.0" encoding="UTF-8"?>
    <svg id="Layer_1" xmlns="http://www.w3.org/2000/svg" viewBox="0 0 254 400">
    <rect class="cls-2" style="stroke-width:0px;fill:#e95420" y="0" width="254" height="400"/>
    <path class="cls-3" style="stroke-width:0px;fill:#ffffff" d="m192.26,309.63h-76.3c-.22,0-.43.09-.58.24-.15.16-.24.37-.24.59l.12,12.44c0,.45.37.81.82.81h61.63v12.87h-75.09v-156.37c0-.45-.37-.82-.82-.82h-40.07c-.45,0-.82.37-.82.82v169.57c0,.45.37.82.82.82h13c.22,0,.43-.09.58-.24.15-.15.24-.36.24-.58l-.16-156.87,13.25-.15-.48,156.33c0,.22.09.43.24.58.15.16.36.24.58.24h103.28c.45,0,.82-.37.82-.82v-38.64c0-.45-.37-.82-.82-.82Z"/>
    <rect class="cls-1" style="fill:none;stroke-width:0px" x="30.25" y="169.38" width="193.57" height="193.57"/>
</svg>
