<svg viewBox="0 0 254 400" xmlns="http://www.w3.org/2000/svg">
    <rect style="fill:#e95420;stroke-width:0px;" width="254" height="400"/>
    <circle style="stroke-width:0px;fill:#ffffff;" cx="58" cy="256" r="26"/>
    <circle style="stroke-width:0px;fill:#ffffff;" cx="168" cy="198" r="26"/>
    <path style="stroke-width:0px;fill:#ffffff;" d="m117 324c-19-4.1-35-16-44-33-7 3.2-15 4.2-22 2.8 11 26 34 46 62 52 6.2 1.3 12 2 19 1.9-4.8-6.4-7.5-14-7.7-22-2.2-0.24-4.3-0.59-6.4-1z"/>
    <circle style="stroke-width:0px;fill:#ffffff;" cx="162" cy="324" r="26"/>
    <path style="stroke-width:0px;fill:#ffffff;" d="m198 314c8.2-10 14-22 17-35 4.8-23 0.32-46-12-66-3 7.1-8.2 13-15 17 7.1 13 9.3 29 6.1 44-1.6 7.3-4.3 14-8.2 20 6.2 5.1 11 12 13 20z"/>
    <path style="stroke-width:0px;fill:#ffffff;" d="m56 218c0.67-0.04 1.3-0.05 2-0.05 2.7 0 5.3 0.28 7.9 0.85 4.3 0.92 8.3 2.5 12 4.8 12-17 31-27 52-28 0.11-2 0.38-4 0.79-5.9 1.2-5.6 3.7-11 7.2-15-33-2.6-65 14-82 43z"/>
    <rect style="stroke-width:0px;fill:none;" x="30" y="169" width="194" height="194"/>
</svg>
