<?xml version="1.0" encoding="UTF-8"?><svg id="Layer_2" xmlns="http://www.w3.org/2000/svg" viewBox="0 0 1280 1280"><g id="Layer_2-2"><rect width="1280" height="1280" fill="#f0602e" stroke-width="0"/><circle cx="359.45" cy="508.21" r="104.1" fill="#fff" stroke-width="0"/><circle cx="792.91" cy="280" r="104.1" fill="#fff" stroke-width="0"/><path d="M594.19,776.08c-75-16.07-137.63-63.93-172.86-131.84-27.75,12.63-58.98,16.47-88.98,10.93,42.62,104.65,132.99,180.7,243.97,204.45,24.35,5.24,49.15,7.73,73.91,7.59-19.11-25.15-29.74-55.44-30.49-87.03-8.58-.95-17.12-2.35-25.5-4.14h0l-.05.05Z" fill="#fff" stroke-width="0"/><circle cx="769.5" cy="776.68" r="104.1" fill="#fff" stroke-width="0"/><path d="M914.32,738.46c32.39-40.82,55.14-89.03,66.12-140.28,19.16-89.38,1.25-183.19-49.05-259.24-11.98,28.24-32.34,52.1-58.54,68.52,28.1,52.95,36.63,114.03,24.05,172.81-6.19,28.74-17.07,55.89-32.39,80.64,24.5,20.11,41.77,47.11,49.8,77.55h0Z" fill="#fff" stroke-width="0"/><path d="M351.42,358.95c2.64-.15,5.29-.2,7.93-.2,10.53,0,21.01,1.1,31.44,3.34,16.97,3.64,32.94,10.03,47.51,19.11,46.86-67.37,122.46-107.84,204.4-109.34.45-7.88,1.5-15.72,3.14-23.4,4.79-22.26,14.52-43.12,28.44-60.98-130.89-10.38-258.1,57.19-322.82,171.47h-.05Z" fill="#fff" stroke-width="0"/><g isolation="isolate"><text transform="translate(169.02 1159.98)" fill="#fff" font-family="Ubuntu-Regular, Ubuntu" font-size="154.7" font-variation-settings="&apos;wdth&apos; 100, &apos;wght&apos; 400" isolation="isolate"><tspan x="0" y="0">UBUNTU P</tspan></text><text transform="translate(908.62 1159.98)" fill="#fff" font-family="Ubuntu-Regular, Ubuntu" font-size="154.7" font-variation-settings="&apos;wdth&apos; 100, &apos;wght&apos; 400" isolation="isolate"><tspan x="0" y="0">R</tspan></text><text transform="translate(1004.84 1159.98)" fill="#fff" font-family="Ubuntu-Regular, Ubuntu" font-size="154.7" font-variation-settings="&apos;wdth&apos; 100, &apos;wght&apos; 400" isolation="isolate"><tspan x="0" y="0">O</tspan></text></g></g></svg>